<svg width="36" height="40" viewBox="0 0 36 40" fill="none" xmlns="http://www.w3.org/2000/svg">
<rect x="1.71387" y="4.71484" width="34.2798" height="34.2796" rx="8.36906" fill="#005620" style="fill:#005620;fill:color(display-p3 0.0000 0.3373 0.1255);fill-opacity:1;"/>
<rect x="0.285664" y="3.28664" width="33.7084" height="33.7082" rx="8.0834" fill="#61D361" stroke="#005620" style="fill:#61D361;fill:color(display-p3 0.3804 0.8275 0.3804);fill-opacity:1;stroke:#005620;stroke:color(display-p3 0.0000 0.3373 0.1255);stroke-opacity:1;" stroke-width="0.571328"/>
<g filter="url(#filter0_i_1694_3105)">
<path d="M15.1493 29.9238C14.9252 30.0173 14.7197 29.9328 14.5328 29.6703C14.4064 29.5528 14.2634 29.3029 14.1039 28.9207C13.6253 27.7739 13.1858 26.7579 12.7853 25.8725C12.2067 24.5973 11.6176 23.2412 11.0179 21.8045L9.20258 17.4546C9.15307 17.336 9.15904 17.2019 9.22048 17.0525C9.2896 16.8843 9.38348 16.7755 9.50211 16.726L11.7841 15.7969C12.2115 15.634 12.7678 15.4096 13.4533 15.1235C14.4419 14.7109 15.2036 14.3853 15.7386 14.1466L16.4619 13.8215C17.2418 13.4651 17.8887 13.1796 18.4028 12.965C19.2332 12.6185 20.0736 12.407 20.924 12.3307C21.9172 12.2258 22.8253 12.3808 23.6485 12.7956C24.5596 13.2357 25.2627 14.0489 25.7578 15.2352C26.5939 17.2387 26.6916 18.9005 26.0507 20.2204C25.5064 21.4381 24.3445 22.4182 22.565 23.1609L19.8563 24.2913C19.996 24.589 20.1373 24.9092 20.2804 25.2519C20.3299 25.3705 20.3838 25.5183 20.4421 25.6951C20.5082 25.8533 20.5989 26.0708 20.7144 26.3476C20.896 26.7826 20.9192 27.0979 20.7842 27.2936C20.6887 27.4727 20.4433 27.6448 20.0478 27.8098C19.4678 28.0519 19.0685 28.2262 18.85 28.3329C17.9405 28.7125 17.221 29.0282 16.6915 29.2801L15.1493 29.9238ZM19.9338 21.4731C20.2106 21.3576 20.3049 21.0087 20.2166 20.4264C20.1736 20.0265 20.0326 19.4662 19.7938 18.7456C19.6606 18.3524 19.495 17.9185 19.297 17.4439L19.2062 17.2265C19.1182 17.0156 18.9532 16.713 18.7113 16.3187C18.5595 16.1034 18.4232 15.9436 18.3023 15.8393C18.1758 15.7218 18.0407 15.6389 17.8967 15.5907C17.7417 15.5161 17.5984 15.5062 17.4665 15.5613C17.4006 15.5888 17.3523 15.6399 17.3216 15.7146C17.3041 15.7838 17.292 15.8662 17.2855 15.9618C17.2395 16.2596 17.3277 16.8419 17.5502 17.7086C17.6096 17.9624 17.7252 18.332 17.8969 18.8176C18.1335 19.5701 18.5049 20.5526 19.011 21.7653C19.011 21.7653 19.0204 21.7692 19.039 21.7768C19.0577 21.7845 19.0896 21.7867 19.1346 21.7834L19.3802 21.7041L19.9338 21.4731Z" fill="#005620" style="fill:#005620;fill:color(display-p3 0.0000 0.3373 0.1255);fill-opacity:1;"/>
</g>
<path d="M13.1137 29.2416C12.8896 29.3351 12.6841 29.2507 12.4972 28.9882C12.3707 28.8707 12.2278 28.6208 12.0682 28.2386C11.5896 27.0918 11.1501 26.0757 10.7497 25.1904C10.171 23.9151 9.58191 22.5591 8.98229 21.1223L7.16693 16.7725C7.11742 16.6539 7.12339 16.5198 7.18483 16.3704C7.25396 16.2022 7.34783 16.0934 7.46647 16.0439L9.7485 15.1147C10.1758 14.9519 10.7322 14.7274 11.4176 14.4414C12.4062 14.0288 13.168 13.7031 13.7029 13.4644L14.4262 13.1393C15.2061 12.7829 15.8531 12.4974 16.3672 12.2829C17.1976 11.9363 18.038 11.7249 18.8883 11.6486C19.8815 11.5437 20.7897 11.6986 21.6129 12.1135C22.5239 12.5535 23.227 13.3667 23.7221 14.553C24.5583 16.5566 24.6559 18.2183 24.015 19.5383C23.4708 20.7559 22.3089 21.7361 20.5294 22.4787L17.8206 23.6092C17.9603 23.9069 18.1017 24.227 18.2447 24.5698C18.2942 24.6884 18.3482 24.8361 18.4065 25.013C18.4725 25.1712 18.5633 25.3887 18.6788 25.6655C18.8603 26.1005 18.8836 26.4158 18.7486 26.6114C18.6531 26.7906 18.4076 26.9627 18.0122 27.1277C17.4322 27.3697 17.0329 27.5441 16.8143 27.6508C15.9048 28.0304 15.1853 28.3461 14.6559 28.598L13.1137 29.2416ZM17.8981 20.791C18.1749 20.6754 18.2692 20.3265 18.181 19.7443C18.1379 19.3444 17.997 18.7841 17.7581 18.0635C17.625 17.6702 17.4594 17.2363 17.2613 16.7618L17.1706 16.5443C17.0825 16.3334 16.9176 16.0308 16.6756 15.6365C16.5239 15.4213 16.3875 15.2615 16.2666 15.1572C16.1402 15.0397 16.005 14.9568 15.8611 14.9085C15.7061 14.8339 15.5627 14.8241 15.4309 14.8791C15.365 14.9066 15.3167 14.9577 15.286 15.0325C15.2684 15.1017 15.2564 15.1841 15.2498 15.2797C15.2039 15.5775 15.2921 16.1597 15.5145 17.0265C15.574 17.2803 15.6896 17.6499 15.8613 18.1354C16.0979 18.8879 16.4693 19.8705 16.9754 21.0832C16.9754 21.0832 16.9847 21.087 17.0034 21.0947C17.0221 21.1024 17.0539 21.1046 17.099 21.1012L17.3445 21.022L17.8981 20.791Z" fill="white" style="fill:white;fill:white;fill-opacity:1;"/>
<defs>
<filter id="filter0_i_1694_3105" x="8.97168" y="10.6875" width="20.4331" height="19.5005" filterUnits="userSpaceOnUse" color-interpolation-filters="sRGB">
<feFlood flood-opacity="0" result="BackgroundImageFix"/>
<feBlend mode="normal" in="SourceGraphic" in2="BackgroundImageFix" result="shape"/>
<feColorMatrix in="SourceAlpha" type="matrix" values="0 0 0 0 0 0 0 0 0 0 0 0 0 0 0 0 0 0 127 0" result="hardAlpha"/>
<feOffset dx="0.0669525" dy="0.200857"/>
<feComposite in2="hardAlpha" operator="arithmetic" k2="-1" k3="1"/>
<feColorMatrix type="matrix" values="0 0 0 0 0.0894444 0 0 0 0 0.466667 0 0 0 0 0.268855 0 0 0 1 0"/>
<feBlend mode="normal" in2="shape" result="effect1_innerShadow_1694_3105"/>
</filter>
</defs>
</svg>
